<!-- GitHub logo SVG (accessible, scalable) -->
<svg role="img" aria-label="GitHub" xmlns="http://www.w3.org/2000/svg" viewBox="0 0 24 24" width="32" height="32">
  <title>GitHub</title>
  <path fill="currentColor" d="M12 .297c-6.63 0-12 5.373-12 12 0 5.303 3.438 9.8 8.205 11.387.6.113.82-.258.82-.577 0-.285-.01-1.04-.015-2.04-3.338.726-4.042-1.61-4.042-1.61-.546-1.387-1.333-1.757-1.333-1.757-1.09-.745.083-.73.083-.73 1.205.085 1.84 1.237 1.84 1.237 1.07 1.834 2.807 1.304 3.492.996.108-.776.418-1.304.76-1.605-2.665-.304-5.467-1.334-5.467-5.93 0-1.31.468-2.381 1.236-3.221-.124-.303-.536-1.524.117-3.176 0 0 1.008-.322 3.3 1.23a11.52 11.52 0 0 1 3.003-.404c1.018.005 2.043.138 3.003.404 2.29-1.552 3.297-1.23 3.297-1.23.655 1.653.243 2.873.12 3.176.77.84 1.235 1.911 1.235 3.221 0 4.61-2.807 5.624-5.48 5.92.43.37.823 1.102.823 2.222 0 1.606-.014 2.898-.014 3.293 0 .32.218.694.825.576C20.565 22.092 24 17.592 24 12.297c0-6.627-5.373-12-12-12"/>
</svg>
